<svg width="1600" height="900" viewBox="0 0 1600 900" fill="none" xmlns="http://www.w3.org/2000/svg">
  <rect width="1600" height="900" fill="#EDE7D8"/>
  <rect width="1600" height="900" fill="url(#paint0_linear_2_2)"/>
  <circle cx="1340" cy="170" r="122" fill="#ECAC27" fill-opacity="0.78"/>
  <path d="M0 640L160 500L310 610L470 450L650 560L812 410L1010 560L1190 420L1420 610L1600 520V900H0V640Z" fill="#D28C28" fill-opacity="0.68"/>
  <path d="M0 700L180 585L340 700L520 565L680 680L850 500L1050 680L1220 535L1450 710L1600 640V900H0V700Z" fill="#B45B22" fill-opacity="0.72"/>
  <path d="M430 345C468 295 532 258 602 258C690 258 763 316 787 395C800 437 842 468 886 468H1035" stroke="#F8F6EF" stroke-opacity="0.72" stroke-width="18" stroke-linecap="round"/>
  <g opacity="0.94">
    <rect x="88" y="94" width="510" height="274" rx="28" fill="#1F2B1A" fill-opacity="0.18" stroke="#F8F6EF" stroke-opacity="0.22"/>
    <text x="126" y="182" fill="#1F2B1A" font-family="Inter, Arial, sans-serif" font-size="36" font-weight="700">Stezka Českým rájem</text>
    <text x="126" y="238" fill="#1F2B1A" fill-opacity="0.72" font-family="Inter, Arial, sans-serif" font-size="24">Třídenní přechod mezi pískovci</text>
  </g>
  <defs>
    <linearGradient id="paint0_linear_2_2" x1="310" y1="0" x2="1180" y2="900" gradientUnits="userSpaceOnUse">
      <stop stop-color="#F5F0E2"/>
      <stop offset="0.42" stop-color="#E9D6A2"/>
      <stop offset="1" stop-color="#C7822D"/>
    </linearGradient>
  </defs>
</svg>